<svg xmlns="http://www.w3.org/2000/svg" xmlns:xlink="http://www.w3.org/1999/xlink" viewBox="0 0 107.23 117.27"><defs><style>.cls-1,.cls-6,.cls-9{fill:none;}.cls-2{fill:url(#linear-gradient);}.cls-3{clip-path:url(#clip-path);}.cls-4{fill:url(#linear-gradient-2);}.cls-5{clip-path:url(#clip-path-2);}.cls-6{stroke:#99f;stroke-width:2.3px;}.cls-6,.cls-9{stroke-miterlimit:10;}.cls-7{clip-path:url(#clip-path-3);}.cls-8{fill:url(#linear-gradient-4);}.cls-9{stroke-width:0.58px;stroke:url(#linear-gradient-5);}.cls-10{clip-path:url(#clip-path-4);}.cls-11{fill:url(#linear-gradient-6);}.cls-12{fill:#52b447;}.cls-13{fill:#4cfac7;}.cls-14{fill:#fff;}.cls-15{clip-path:url(#clip-path-5);}.cls-16{fill:url(#linear-gradient-7);}.cls-17{clip-path:url(#clip-path-6);}.cls-18{fill:url(#linear-gradient-8);}.cls-19{fill:#009099;}.cls-20{clip-path:url(#clip-path-8);}.cls-21{opacity:0.63;isolation:isolate;}.cls-22{clip-path:url(#clip-path-9);}.cls-23{clip-path:url(#clip-path-10);}.cls-24{fill:#abfde5;}</style><linearGradient id="linear-gradient" x1="15.18" y1="76.67" x2="89.31" y2="76.67" gradientUnits="userSpaceOnUse"><stop offset="0" stop-color="#4cfac7"/><stop offset="1" stop-color="#99f"/></linearGradient><clipPath id="clip-path"><path class="cls-1" d="M38.55,49.77c-12.79,0-23.15,12-23.15,26.9s10.36,26.91,23.15,26.91h6.92v-1.23c9.4-3.42,16.22-13.62,16.22-25.68S54.87,54.42,45.47,51V49.77Z"/></clipPath><linearGradient id="linear-gradient-2" x1="3432" y1="-3085.85" x2="3433.15" y2="-3085.85" gradientTransform="matrix(0, -44.07, -44.07, 0, -135963.79, 151360.38)" gradientUnits="userSpaceOnUse"><stop offset="0" stop-color="#99f"/><stop offset="0.5" stop-color="#4cfac7"/><stop offset="1" stop-color="#9370db"/></linearGradient><clipPath id="clip-path-2"><path class="cls-1" d="M15.4,76.67c0,14.86,10.36,26.91,23.14,26.91s23.15-12,23.15-26.91-10.36-26.9-23.15-26.9-23.14,12-23.14,26.9"/></clipPath><clipPath id="clip-path-3"><path class="cls-2" d="M22.86,76.67c0,14.86,10.37,26.91,23.15,26.91s23.14-12,23.14-26.91S58.79,49.77,46,49.77s-23.15,12-23.15,26.9"/></clipPath><linearGradient id="linear-gradient-4" x1="3465.18" y1="-3227.1" x2="3464.03" y2="-3227.08" gradientTransform="matrix(65.96, 0, 0, -65.96, -228473.93, -212783.5)" xlink:href="#linear-gradient"/><linearGradient id="linear-gradient-5" x1="22.58" y1="76.64" x2="43.73" y2="76.64" gradientTransform="matrix(1, 0, 0, 1, 0, 0)" xlink:href="#linear-gradient-2"/><clipPath id="clip-path-4"><path class="cls-1" d="M28.22,76.67c0,12.28,8.56,22.24,19.13,22.24S66.47,89,66.47,76.67,57.91,54.44,47.35,54.44s-19.13,10-19.13,22.23"/></clipPath><linearGradient id="linear-gradient-6" x1="3429.08" y1="-3266.97" x2="3430.23" y2="-3266.97" gradientTransform="matrix(39.93, 0, 0, -39.93, -136878.82, -130358.11)" gradientUnits="userSpaceOnUse"><stop offset="0" stop-color="#99f"/><stop offset="1" stop-color="#4cfac7"/></linearGradient><clipPath id="clip-path-5"><path class="cls-1" d="M32.27,71.87c0-7.94,5.55-14.39,12.37-14.39h9.21a2.44,2.44,0,0,1,0,4.83H44.64c-4.52,0-8.21,4.29-8.21,9.56a10.79,10.79,0,0,0,.92,4.41,8.17,8.17,0,0,0,7.3,5.15,2.44,2.44,0,0,1,0,4.83c-4.64,0-8.84-3-11-7.75A16.33,16.33,0,0,1,32.27,72h0Zm-4.05,4.8A24,24,0,0,0,34.3,92.94H45.14c4.53,0,8.22-4.29,8.22-9.56A10.64,10.64,0,0,0,52.43,79a8.14,8.14,0,0,0-7.29-5.14,2.45,2.45,0,0,1,0-4.84H65.27c-2.68-8.46-9.65-14.5-17.85-14.55h-.08c-10.56,0-19.12,10-19.12,22.23"/></clipPath><linearGradient id="linear-gradient-7" x1="3407.03" y1="-3290.51" x2="3408.18" y2="-3290.51" gradientTransform="matrix(32.19, 0, 0, -32.19, -109646.38, -105850.04)" xlink:href="#linear-gradient"/><clipPath id="clip-path-6"><path class="cls-1" d="M54.39,73.83h0a14.88,14.88,0,0,1,1.72,2.91,16.5,16.5,0,0,1,1.39,6.52v.13c0,7.77-5.34,14.13-12,14.37H41.31a16.62,16.62,0,0,0,5.11,1.11h.2l.72,0c10.56,0,19.11-10,19.11-22.24a24.21,24.21,0,0,0-.16-2.84Z"/></clipPath><linearGradient id="linear-gradient-8" x1="3405.15" y1="-3292.56" x2="3406.3" y2="-3292.56" gradientTransform="matrix(31.67, 0, 0, -31.67, -107808.04, -104184.51)" xlink:href="#linear-gradient"/><clipPath id="clip-path-8"><path class="cls-1" d="M22.86,76.78c0,14.84,10.37,26.88,23.15,26.88s23.14-12,23.14-26.88S58.79,49.9,46,49.9s-23.15,12-23.15,26.88"/></clipPath><clipPath id="clip-path-9"><rect class="cls-1" x="0.02" y="36.23" width="48.61" height="67.99"/></clipPath><clipPath id="clip-path-10"><rect class="cls-1" x="25.84" y="49.59" width="31.34" height="59.63"/></clipPath></defs><g id="Layer_2" data-name="Layer 2"><g id="_7" data-name="7"><g class="cls-3"><rect class="cls-4" x="15.4" y="49.77" width="46.28" height="53.81"/></g><g class="cls-5"><line class="cls-6" x1="35.53" y1="52.68" x2="24.49" y2="52.68"/><line class="cls-6" x1="27.63" y1="60.33" x2="14.51" y2="60.33"/><line class="cls-6" x1="33.29" y1="98.56" x2="20.17" y2="98.56"/><line class="cls-6" x1="27.63" y1="83.27" x2="14.51" y2="83.27"/><line class="cls-6" x1="27.63" y1="75.62" x2="14.51" y2="75.62"/><line class="cls-6" x1="20.25" y1="67.98" x2="14.51" y2="67.98"/><line class="cls-6" x1="27.63" y1="67.98" x2="20.25" y2="67.98"/><line class="cls-6" x1="27.63" y1="90.91" x2="14.51" y2="90.91"/></g><path class="cls-2" d="M22.86,76.67c0,14.86,10.37,26.91,23.15,26.91s23.14-12,23.14-26.91S58.79,49.77,46,49.77s-23.15,12-23.15,26.9"/><g class="cls-7"><rect class="cls-8" x="22.3" y="49.28" width="47.42" height="54.78" transform="translate(-1.62 1) rotate(-1.22)"/></g><path class="cls-9" d="M43.69,49.9C32,51.25,22.87,62.72,22.87,76.67s8.86,25.08,20.29,26.7"/><g class="cls-10"><rect class="cls-11" x="28.22" y="54.44" width="38.25" height="44.47"/></g><path class="cls-12" d="M61.52,74.14,45.14,69.88h-.06a1.53,1.53,0,0,0-1.79,1.36,1.82,1.82,0,0,0,1.15,2.13,6.49,6.49,0,0,1,4.45,5A8.22,8.22,0,0,1,49,81.76c-.69,3.81-3.85,6.23-7,5.4l-6.48-1.68a1.51,1.51,0,0,0-1.78,1.36A1.81,1.81,0,0,0,34.8,89l6.48,1.69c4.81,1.25,9.56-2.4,10.61-8.14a.28.28,0,0,0,0-.09,12.55,12.55,0,0,0-.12-5A11.14,11.14,0,0,0,51,75.05l9.93,2.58a1.51,1.51,0,0,0,1.78-1.36,1.81,1.81,0,0,0-1.14-2.13Z"/><path class="cls-13" d="M42.45,82.24a1.51,1.51,0,0,0,1.78-1.36,1.81,1.81,0,0,0-1.14-2.13,6.51,6.51,0,0,1-4.46-5,8.44,8.44,0,0,1-.07-3.36c.7-3.8,3.86-6.22,7-5.4l6.48,1.69a1.52,1.52,0,0,0,1.78-1.37,1.81,1.81,0,0,0-1.14-2.12l-6.49-1.69c-4.8-1.25-9.55,2.4-10.6,8.13,0,0,0,.06,0,.09a12.79,12.79,0,0,0,.13,5c.87,3.84,3.44,6.76,6.7,7.6"/><path class="cls-14" d="M64.81,76.67A1.52,1.52,0,0,1,63,78L53.1,75.45a9.26,9.26,0,0,0-5.82-5.17h0l16.38,4.26a1.81,1.81,0,0,1,1.14,2.13Z"/><path class="cls-14" d="M46.38,81.29a1.52,1.52,0,0,1-1.78,1.36c-3.26-.85-5.83-3.76-6.71-7.6a12.6,12.6,0,0,1-.12-5s0-.06,0-.09c1-5.73,5.81-9.38,10.61-8.13A1.82,1.82,0,0,1,49.54,64a1.53,1.53,0,0,1-1.79,1.36c-3.18-.82-6.34,1.6-7,5.4a8.44,8.44,0,0,0,.07,3.36,6.49,6.49,0,0,0,4.45,5,1.82,1.82,0,0,1,1.15,2.13"/><path class="cls-14" d="M56,65.67A1.52,1.52,0,0,1,54.24,67l-6.48-1.69A1.52,1.52,0,0,0,49.54,64a1.82,1.82,0,0,0-1.15-2.13l6.48,1.69A1.81,1.81,0,0,1,56,65.67"/><path class="cls-14" d="M49.54,64a1.53,1.53,0,0,1-1.79,1.37c-3.18-.83-6.34,1.59-7,5.4a1.52,1.52,0,0,1-1.78,1.36,1.8,1.8,0,0,1-1.16-2s0-.06,0-.09c1-5.73,5.81-9.38,10.61-8.13A1.82,1.82,0,0,1,49.54,64Z"/><path class="cls-14" d="M54.05,82.84a1.81,1.81,0,0,0-1.16-2,1.53,1.53,0,0,0-1.78,1.37A8.44,8.44,0,0,0,51,78.81a6.51,6.51,0,0,0-4.46-5,1.8,1.8,0,0,1-1.14-2.12,1.51,1.51,0,0,1,1.78-1.37h.06a9.17,9.17,0,0,1,5.81,5.17,11.14,11.14,0,0,1,.83,2.42,12.55,12.55,0,0,1,.12,5Z"/><path class="cls-14" d="M35.8,87.25a1.53,1.53,0,0,1,1.79-1.37l6.48,1.69a1.53,1.53,0,0,0-1.79,1.36,1.82,1.82,0,0,0,1.15,2.13L37,89.37a1.81,1.81,0,0,1-1.15-2.12"/><path class="cls-14" d="M54,82.93c-1,5.73-5.8,9.38-10.6,8.13a1.81,1.81,0,0,1-1.15-2.12,1.52,1.52,0,0,1,1.78-1.37c3.19.83,6.35-1.59,7-5.4a1.51,1.51,0,0,1,1.78-1.37,1.78,1.78,0,0,1,1.16,2s0,.06,0,.09Z"/><g class="cls-15"><rect class="cls-16" x="28.22" y="54.44" width="37.05" height="38.5"/></g><g class="cls-17"><rect class="cls-18" x="41.31" y="73.83" width="25.14" height="25.08"/></g><g class="cls-10"><path class="cls-19" d="M67.17,69H43.85a2.45,2.45,0,0,0,0,4.84A8.12,8.12,0,0,1,51.13,79a10.72,10.72,0,0,1,.93,4.4c0,5.27-3.68,9.56-8.2,9.56H34.67a2.45,2.45,0,0,0,0,4.84h9.19c6.81,0,12.35-6.46,12.35-14.39v-.13a16.54,16.54,0,0,0-1.39-6.52,15.18,15.18,0,0,0-1.72-2.91H67.18a2.44,2.44,0,0,0,0-4.83h0Z"/><path class="cls-19" d="M43.35,86.26a2.45,2.45,0,0,0,0-4.84,8.14,8.14,0,0,1-7.28-5.14,10.79,10.79,0,0,1-.92-4.41c0-5.27,3.68-9.56,8.2-9.56h9.19a2.44,2.44,0,0,0,0-4.83H43.35C36.54,57.48,31,63.93,31,71.87V72a16.16,16.16,0,0,0,1.39,6.52c2.14,4.78,6.34,7.75,11,7.75Z"/><path class="cls-14" d="M68.44,69H45.13a2.45,2.45,0,0,0,0,4.84A8.12,8.12,0,0,1,52.4,79a10.56,10.56,0,0,1,.93,4.4c0,5.27-3.68,9.56-8.2,9.56H35.94a2.45,2.45,0,0,0,0,4.84h9.19c6.81,0,12.35-6.46,12.35-14.39v-.13a16.36,16.36,0,0,0-1.39-6.52,15.18,15.18,0,0,0-1.72-2.91H68.45a2.44,2.44,0,0,0,0-4.83h0Z"/><path class="cls-14" d="M44.63,86.26a2.45,2.45,0,0,0,0-4.84,8.13,8.13,0,0,1-7.28-5.14,10.8,10.8,0,0,1-.93-4.41c0-5.27,3.68-9.56,8.2-9.56h9.19a2.44,2.44,0,0,0,0-4.83H44.62c-6.81,0-12.35,6.45-12.35,14.39V72a16.5,16.5,0,0,0,1.39,6.52c2.14,4.78,6.34,7.75,11,7.75h0Z"/></g><path class="cls-13" d="M47.35,54.44h-.43c9.92.26,17.89,10.11,17.89,22.22s-8,22-17.89,22.23h.43c10.56,0,19.12-10,19.12-22.24S57.91,54.43,47.35,54.43Z"/><g class="cls-20"><g class="cls-21"><g class="cls-22"><polygon class="cls-14" points="0.02 90.95 48.24 36.23 48.63 46.27 19.8 104.22 0.02 90.95"/></g></g><g class="cls-21"><g class="cls-23"><polygon class="cls-14" points="25.84 107.54 54.67 49.59 57.18 51.28 28.35 109.22 25.84 107.54"/></g></g></g><path class="cls-24" d="M16.68,71.25a.36.36,0,0,1,0,.71.36.36,0,0,1,0-.71"/><path class="cls-24" d="M12.05,59.36a.35.35,0,1,1-.36.35.35.35,0,0,1,.36-.35"/><path class="cls-24" d="M7.79,49.93a.33.33,0,1,1-.33.33.33.33,0,0,1,.33-.33"/><path class="cls-24" d="M6,65.4a.36.36,0,0,1,0,.71.36.36,0,0,1,0-.71"/><path class="cls-24" d="M5.82,74A.18.18,0,0,1,6,74.2a.17.17,0,0,1-.18.17.16.16,0,0,1-.17-.17A.17.17,0,0,1,5.82,74"/><path class="cls-24" d="M8.51,79.64A.4.4,0,0,1,8.9,80a.39.39,0,0,1-.39.39A.38.38,0,0,1,8.12,80a.39.39,0,0,1,.39-.39"/><path class="cls-24" d="M35.08,92.32a.4.4,0,1,1-.41.4.4.4,0,0,1,.41-.4"/><path class="cls-24" d="M47.41,104.94a.24.24,0,1,1-.24.24.24.24,0,0,1,.24-.24"/><path class="cls-24" d="M62.85,105.92a.26.26,0,0,0-.26.26.26.26,0,0,0,.51,0,.26.26,0,0,0-.25-.26"/><path class="cls-24" d="M51.71,112.68a.3.3,0,0,1,0,.6.3.3,0,1,1,0-.6"/><path class="cls-24" d="M48.05,113.28a.41.41,0,1,1-.4.4.4.4,0,0,1,.4-.4"/><path class="cls-24" d="M5.14,111.67a.51.51,0,1,1,0,1,.51.51,0,0,1,0-1"/><path class="cls-24" d="M.45,88a.46.46,0,1,1,0,.91.46.46,0,0,1,0-.91"/><path class="cls-24" d="M60.54,68.27a.61.61,0,0,1,0-.85.6.6,0,0,1,.86,0,.61.61,0,0,1,0,.85.6.6,0,0,1-.86,0"/><path class="cls-24" d="M44.19,86.38a.64.64,0,1,1,.9,0,.63.63,0,0,1-.9,0"/><path class="cls-24" d="M31.61,68.14a.41.41,0,0,1,0-.58.41.41,0,0,1,.59,0,.41.41,0,0,1,0,.58.42.42,0,0,1-.59,0"/><path class="cls-24" d="M32.18,65.19a.18.18,0,0,1,0-.27.19.19,0,0,1,.27.27.18.18,0,0,1-.27,0"/><path class="cls-24" d="M35,51.29a.38.38,0,1,1,.54,0,.38.38,0,0,1-.54,0"/><path class="cls-24" d="M53.2,42.35a.3.3,0,1,1,.42,0,.29.29,0,0,1-.42,0"/><path class="cls-24" d="M62.43,79.34a.21.21,0,0,1,0-.31.22.22,0,0,1,.32,0,.23.23,0,0,1,0,.31.22.22,0,0,1-.32,0"/><path class="cls-24" d="M59.19,86.72a.21.21,0,0,1,0-.31.22.22,0,0,1,.32,0,.23.23,0,0,1,0,.31.22.22,0,0,1-.32,0"/><path class="cls-24" d="M56.89,92.83a.21.21,0,1,1,.29,0,.21.21,0,0,1-.29,0"/><path class="cls-24" d="M64.59,86.72a.21.21,0,0,1,0-.31.22.22,0,0,1,.32,0,.23.23,0,0,1,0,.31.22.22,0,0,1-.32,0"/><path class="cls-24" d="M68.52,83a.1.1,0,0,1,0-.16.11.11,0,0,1,.15,0,.1.1,0,0,1,0,.16.09.09,0,0,1-.15,0"/><path class="cls-24" d="M69.83,79.25a.25.25,0,1,1,.35-.35.25.25,0,0,1-.35.35"/><path class="cls-24" d="M63.62,61.73a.25.25,0,1,1,.36,0,.25.25,0,0,1-.36,0"/><path class="cls-24" d="M63.75,50.59a.16.16,0,0,1,0-.22.18.18,0,0,1,.22,0,.16.16,0,1,1-.22.22"/><path class="cls-24" d="M57.3,43.26a.17.17,0,0,0,.23,0,.16.16,0,0,0,0-.22.15.15,0,0,0-.23,0,.16.16,0,0,0,0,.22"/><path class="cls-24" d="M65.29,45.22a.19.19,0,0,1,.27-.27.19.19,0,1,1-.27.27"/><path class="cls-24" d="M67.19,46.58a.25.25,0,1,1,.36,0,.25.25,0,0,1-.36,0"/><path class="cls-24" d="M85.62,66.45a.32.32,0,1,1,.45-.45.32.32,0,0,1-.45.45"/><path class="cls-24" d="M77.14,79.12a.29.29,0,1,1,.41,0,.3.3,0,0,1-.41,0"/><path class="cls-24" d="M60.73,54.39a.26.26,0,0,1-.24-.27.25.25,0,0,1,.27-.23.25.25,0,1,1,0,.5"/><path class="cls-24" d="M55.61,69.83a.2.2,0,0,1,.2.21.2.2,0,0,1-.2.2.2.2,0,0,1-.21-.2.21.21,0,0,1,.21-.21"/><path class="cls-24" d="M42.66,71.18a.21.21,0,1,1,0,.41.21.21,0,0,1-.21-.21.2.2,0,0,1,.21-.2"/><path class="cls-24" d="M41.05,63.72a.16.16,0,0,1,.16.15.16.16,0,0,1-.16.16.16.16,0,0,1-.15-.16.15.15,0,0,1,.15-.15"/><path class="cls-24" d="M44.29,60.66a.18.18,0,1,1-.18.18.18.18,0,0,1,.18-.18"/><path class="cls-24" d="M42.3,56.36a.16.16,0,0,0-.16.16.16.16,0,0,0,.16.15.15.15,0,0,0,.15-.15.16.16,0,0,0-.15-.16"/><path class="cls-24" d="M63.35,54.86a.18.18,0,1,1-.18.18.18.18,0,0,1,.18-.18"/><path class="cls-24" d="M49.55,45.17a.16.16,0,0,1,0,.32.16.16,0,1,1,0-.32"/><path class="cls-24" d="M42.84,30.83a.39.39,0,1,1-.39.38.39.39,0,0,1,.39-.38"/><path class="cls-24" d="M40.69,25a.21.21,0,1,1-.21.21.22.22,0,0,1,.21-.21"/><path class="cls-24" d="M42.55,29.64a.1.1,0,1,1,0,.2.1.1,0,0,1,0-.2"/><path class="cls-24" d="M57.78,34a.31.31,0,0,1,0,.62.31.31,0,0,1,0-.62"/><path class="cls-24" d="M63.8,46.39a.27.27,0,1,1,0,.54.27.27,0,0,1,0-.54"/><path class="cls-24" d="M49,113.84a.41.41,0,1,1-.41.41.4.4,0,0,1,.41-.41"/><path class="cls-24" d="M23.83,116.46a.41.41,0,1,1-.41.41.4.4,0,0,1,.41-.41"/><path class="cls-24" d="M20.7,102a.3.3,0,0,1,0,.6.3.3,0,1,1,0-.6"/><path class="cls-24" d="M27,96a.36.36,0,0,1,0,.71A.36.36,0,0,1,27,96"/><path class="cls-24" d="M23.12,87.64a.3.3,0,1,0,.3.3.29.29,0,0,0-.3-.3"/><path class="cls-24" d="M64.09,84.71a.36.36,0,1,1-.35.35.36.36,0,0,1,.35-.35"/><path class="cls-24" d="M37.23,65.86a.31.31,0,1,1,0,.61.31.31,0,0,1,0-.61"/><path class="cls-24" d="M24.18,37.94a.76.76,0,1,1-.76.76.76.76,0,0,1,.76-.76"/><path class="cls-24" d="M20,26.55a.41.41,0,1,1-.41.41.4.4,0,0,1,.41-.41"/><path class="cls-24" d="M23.63,35.63a.2.2,0,1,1,0,.4.2.2,0,1,1,0-.4"/><path class="cls-24" d="M53.26,44.09a.61.61,0,1,1-.61.61.6.6,0,0,1,.61-.61"/><path class="cls-24" d="M65,68.23a.53.53,0,0,1,0,1.06.53.53,0,0,1,0-1.06"/><path class="cls-24" d="M31.2,81.53a1,1,0,1,1-1,1,1,1,0,0,1,1-1"/><path class="cls-24" d="M29.23,42.93a1,1,0,1,1-1,1,1,1,0,0,1,1-1"/><path class="cls-24" d="M63.75,49.28a.66.66,0,0,1,.66.65.67.67,0,0,1-.66.66.66.66,0,0,1-.65-.66.65.65,0,0,1,.65-.65"/><path class="cls-24" d="M66.42,53.21a.3.3,0,1,1-.3.3.3.3,0,0,1,.3-.3"/><path class="cls-24" d="M78.82,72a.6.6,0,1,1,0,1.2.6.6,0,0,1,0-1.2"/><path class="cls-24" d="M47.65,81.53a.48.48,0,1,1,0,1,.48.48,0,1,1,0-1"/><path class="cls-24" d="M60.85,31.38a2.15,2.15,0,1,1-.67,3,2.13,2.13,0,0,1,.67-3"/><path class="cls-24" d="M93.4,28.32a.4.4,0,1,1,.43.68.4.4,0,0,1-.43-.68"/><path class="cls-24" d="M67.38,22.69a.75.75,0,0,1,1,.23.75.75,0,1,1-1.27.81.75.75,0,0,1,.23-1"/><path class="cls-24" d="M41.54,28.18a.29.29,0,0,1,.41.09.3.3,0,1,1-.51.32.29.29,0,0,1,.1-.41"/><path class="cls-24" d="M46.72,16.56a1,1,0,0,1,1.39.32,1,1,0,1,1-1.39-.32"/><path class="cls-24" d="M56.77,56.13a.55.55,0,1,1-.17.76.54.54,0,0,1,.17-.76"/><path class="cls-24" d="M68.63,95.8a.55.55,0,0,1,.76.18.54.54,0,0,1-.17.76.55.55,0,0,1-.59-.94"/><path class="cls-24" d="M106.76,81.16a.3.3,0,1,1-.09.41.29.29,0,0,1,.09-.41"/><path class="cls-24" d="M59.19,101.76a.28.28,0,0,1,.38.09.28.28,0,0,1-.08.38.29.29,0,0,1-.39-.09.28.28,0,0,1,.09-.38"/><path class="cls-24" d="M47.05,96.55a.47.47,0,0,1,.63.14.46.46,0,0,1-.15.63.45.45,0,0,1-.62-.15.45.45,0,0,1,.14-.62"/><path class="cls-24" d="M40.9,97.57a.36.36,0,0,1,.49.11.36.36,0,1,1-.6.38.36.36,0,0,1,.11-.49"/><path class="cls-24" d="M32,85a.51.51,0,0,1,.69.16.5.5,0,0,1-.16.7.49.49,0,0,1-.69-.16A.5.5,0,0,1,32,85"/><path class="cls-24" d="M44.05.4a.2.2,0,0,1-.19-.21A.2.2,0,0,1,44.08,0a.2.2,0,0,1,.18.22.19.19,0,0,1-.21.18"/><path class="cls-24" d="M52.87,10.36a.38.38,0,0,1,.05-.75.38.38,0,1,1-.05.75"/><path class="cls-24" d="M49.58,14.52a.14.14,0,0,1-.14-.16.15.15,0,0,1,.16-.14.16.16,0,0,1,.14.16.15.15,0,0,1-.16.14"/><path class="cls-24" d="M44.05,17.67a.5.5,0,1,1,.54-.46.5.5,0,0,1-.54.46"/><path class="cls-24" d="M54.81,28.88a.29.29,0,0,1-.26-.3.28.28,0,0,1,.3-.26.29.29,0,0,1,.25.3.28.28,0,0,1-.29.26"/><path class="cls-24" d="M49.14,39.19a.28.28,0,1,1,.3-.26.29.29,0,0,1-.3.26"/><path class="cls-24" d="M29.44,33.82a.15.15,0,1,1,0-.3.14.14,0,0,1,.14.16.15.15,0,0,1-.16.14"/><path class="cls-24" d="M54.7,39.58a.14.14,0,0,1-.12-.15.13.13,0,0,1,.14-.13.14.14,0,0,1,.13.15.14.14,0,0,1-.15.13"/><path class="cls-24" d="M58.06,45.26a.22.22,0,0,1-.21-.24.22.22,0,0,1,.24-.21.23.23,0,0,1,.21.24.22.22,0,0,1-.24.21"/><path class="cls-24" d="M60.84,46.67a.19.19,0,0,1-.17-.19.17.17,0,0,1,.19-.16.17.17,0,0,1,.16.19.17.17,0,0,1-.18.16"/></g></g></svg>