<svg width="26" height="21" viewBox="0 0 26 21" fill="none" xmlns="http://www.w3.org/2000/svg">
<path d="M22.0107 1.68135C20.3248 0.89006 18.5458 0.325301 16.7181 0.0011544C16.7015 -0.00169769 16.6845 0.000765561 16.6694 0.00820555C16.6543 0.0156455 16.6418 0.0276968 16.6336 0.0427023C16.4045 0.458182 16.151 1.00163 15.9739 1.42708C14.0037 1.1213 11.9998 1.1213 10.0297 1.42708C9.83209 0.953134 9.60857 0.490943 9.36018 0.0427023C9.35184 0.0278612 9.33931 0.0159487 9.32422 0.00853264C9.30914 0.00111656 9.29222 -0.00145561 9.27568 0.0011544C7.44757 0.323567 5.66821 0.888619 3.98311 1.68135C3.96869 1.68698 3.95663 1.69756 3.94898 1.71127C0.578769 6.86155 -0.345847 11.8855 0.107523 16.8464C0.109148 16.8696 0.123773 16.8929 0.141648 16.9078C2.10418 18.3946 4.29931 19.5298 6.63345 20.2649C6.64993 20.2702 6.66764 20.27 6.68401 20.2644C6.70037 20.2587 6.71454 20.2478 6.72445 20.2333C7.22495 19.5353 7.67019 18.7991 8.05369 18.0247C8.06168 18.0087 8.06442 17.9905 8.06149 17.9729C8.05856 17.9552 8.05013 17.939 8.03744 17.9266C8.02904 17.9185 8.01908 17.9123 8.00819 17.9083C7.30808 17.6331 6.63003 17.3025 5.98021 16.9195C5.96206 16.909 5.94856 16.8917 5.94251 16.8713C5.93646 16.8509 5.93832 16.8288 5.94771 16.8098C5.95324 16.7974 5.9616 16.7866 5.97209 16.7782C6.10859 16.6735 6.24508 16.5638 6.37508 16.4541C6.38657 16.4447 6.40034 16.4386 6.41494 16.4366C6.42954 16.4345 6.44441 16.4366 6.45796 16.4425C10.7138 18.4302 15.3206 18.4302 19.5244 16.4425C19.5385 16.4363 19.5539 16.4341 19.5691 16.4361C19.5842 16.4382 19.5986 16.4444 19.6106 16.4541C19.7406 16.5638 19.8771 16.6735 20.0136 16.7782C20.0246 16.7865 20.0335 16.7974 20.0394 16.8101C20.0453 16.8227 20.0481 16.8366 20.0475 16.8506C20.0468 16.8646 20.0428 16.8782 20.0357 16.8903C20.0287 16.9023 20.0188 16.9123 20.0071 16.9195C19.3587 17.306 18.6798 17.6363 17.9775 17.9067C17.9663 17.9108 17.9561 17.9174 17.9477 17.926C17.9392 17.9347 17.9328 17.9451 17.9287 17.9565C17.925 17.9676 17.9234 17.9794 17.9243 17.9911C17.9251 18.0028 17.9283 18.0142 17.9336 18.0247C18.3236 18.7974 18.7705 19.5353 19.2612 20.2333C19.2711 20.2478 19.2853 20.2587 19.3016 20.2644C19.318 20.27 19.3357 20.2702 19.3522 20.2649C21.6902 19.5321 23.8889 18.3968 25.8538 16.9078C25.8636 16.9009 25.8718 16.8917 25.8777 16.8811C25.8836 16.8704 25.8871 16.8586 25.8879 16.8464C26.4306 11.1111 24.9795 6.12865 22.0432 1.71293C22.0402 1.70564 22.0358 1.69906 22.0302 1.69362C22.0246 1.68818 22.0179 1.684 22.0107 1.68135ZM8.68906 13.825C7.40695 13.825 6.35233 12.6218 6.35233 11.146C6.35233 9.66853 7.38745 8.4653 8.68906 8.4653C10.0004 8.4653 11.0453 9.6785 11.0258 11.146C11.0258 12.6218 9.99067 13.825 8.68906 13.825ZM17.3275 13.825C16.047 13.825 14.9907 12.6218 14.9907 11.146C14.9907 9.66853 16.0259 8.4653 17.3275 8.4653C18.6388 8.4653 19.6853 9.6785 19.6642 11.146C19.6642 12.6218 18.6388 13.825 17.3275 13.825Z" fill="#F0EFED"/>
</svg>
