<svg width="24" height="23" viewBox="0 0 24 23" fill="none" xmlns="http://www.w3.org/2000/svg">
<path d="M7.89008 18.5196C7.89008 18.6147 7.78069 18.6908 7.64277 18.6908C7.48582 18.705 7.37644 18.629 7.37644 18.5196C7.37644 18.4244 7.48582 18.3484 7.62375 18.3484C7.76642 18.3341 7.89008 18.4102 7.89008 18.5196ZM6.41098 18.3055C6.37769 18.4007 6.47281 18.5101 6.61549 18.5386C6.73914 18.5861 6.88182 18.5386 6.91036 18.4435C6.93889 18.3484 6.84853 18.239 6.70585 18.1962C6.5822 18.1629 6.44428 18.2104 6.41098 18.3055ZM8.5131 18.2247C8.37518 18.258 8.28006 18.3484 8.29433 18.4577C8.3086 18.5529 8.43225 18.6147 8.57493 18.5814C8.71285 18.5481 8.80797 18.4577 8.7937 18.3626C8.77943 18.2723 8.65102 18.2104 8.5131 18.2247ZM11.6425 0C5.04604 0 0 5.00799 0 11.6045C0 16.8788 3.31963 21.3921 8.06129 22.9806C8.67005 23.09 8.88407 22.7143 8.88407 22.4052C8.88407 22.1103 8.8698 20.4838 8.8698 19.485C8.8698 19.485 5.54065 20.1984 4.84153 18.0678C4.84153 18.0678 4.29936 16.6838 3.51938 16.3271C3.51938 16.3271 2.43028 15.5804 3.59548 15.5947C3.59548 15.5947 4.7797 15.6898 5.43126 16.8217C6.47281 18.6575 8.21824 18.1296 8.89833 17.8157C9.00772 17.0547 9.31685 16.5268 9.65928 16.2129C7.00072 15.9181 4.31838 15.5328 4.31838 10.9576C4.31838 9.64977 4.67983 8.99345 5.44078 8.15641C5.31712 7.84727 4.91287 6.57269 5.56443 4.92714C6.55842 4.618 8.84602 6.21124 8.84602 6.21124C9.7972 5.9449 10.8197 5.80698 11.8327 5.80698C12.8457 5.80698 13.8683 5.9449 14.8195 6.21124C14.8195 6.21124 17.1071 4.61325 18.101 4.92714C18.7526 6.57744 18.3484 7.84727 18.2247 8.15641C18.9856 8.99821 19.4517 9.65452 19.4517 10.9576C19.4517 15.5471 16.6505 15.9133 13.9919 16.2129C14.4295 16.5887 14.8004 17.302 14.8004 18.4197C14.8004 20.0224 14.7862 22.0057 14.7862 22.3956C14.7862 22.7048 15.0049 23.0805 15.6089 22.9711C20.3649 21.3921 23.5894 16.8788 23.5894 11.6045C23.5894 5.00799 18.239 0 11.6425 0ZM4.62276 16.4032C4.56093 16.4507 4.5752 16.5601 4.65605 16.6505C4.73214 16.7266 4.84153 16.7599 4.90336 16.698C4.96518 16.6505 4.95092 16.5411 4.87007 16.4507C4.79397 16.3746 4.68458 16.3414 4.62276 16.4032ZM4.10912 16.018C4.07583 16.0798 4.12339 16.1559 4.2185 16.2034C4.2946 16.251 4.38972 16.2367 4.42301 16.1701C4.4563 16.1083 4.40874 16.0322 4.31362 15.9847C4.2185 15.9561 4.14241 15.9704 4.10912 16.018ZM5.65004 17.7111C5.57394 17.7729 5.60248 17.9156 5.71186 18.0059C5.82125 18.1153 5.95917 18.1296 6.021 18.0535C6.08283 17.9917 6.05429 17.849 5.95917 17.7586C5.85454 17.6492 5.71186 17.635 5.65004 17.7111ZM5.10786 17.0119C5.03177 17.0595 5.03177 17.1832 5.10786 17.2925C5.18396 17.4019 5.31237 17.4495 5.37419 17.4019C5.45029 17.3401 5.45029 17.2164 5.37419 17.1071C5.30761 16.9977 5.18396 16.9501 5.10786 17.0119Z" fill="#F1F1F1"/>
</svg>
