<svg xmlns="http://www.w3.org/2000/svg" xmlns:xlink="http://www.w3.org/1999/xlink" viewBox="0 0 346.05 80.23"><defs><style>.cls-1{fill:#f0efed;}.cls-2{fill:url(#linear-gradient);}</style><linearGradient id="linear-gradient" x1="28.62" y1="23.48" x2="59.74" y2="56.21" gradientUnits="userSpaceOnUse"><stop offset="0" stop-color="#41ffc8"/><stop offset="1" stop-color="#7b84e9"/></linearGradient></defs><g id="Layer_2" data-name="Layer 2"><g id="Layer_1-2" data-name="Layer 1"><path class="cls-1" d="M98,54.69h23.78a5.64,5.64,0,0,0,6-5.94,5.64,5.64,0,0,0-6-6H109.2c-7.09,0-11.89-5-11.89-11.89A11.74,11.74,0,0,1,109.2,19h21.61V25H109.88a5.64,5.64,0,0,0-5.94,5.94,5.64,5.64,0,0,0,5.94,5.95h12.58c7.09,0,11.89,5,11.89,11.89a11.8,11.8,0,0,1-11.89,11.89H98Z"/><path class="cls-1" d="M136.64,48.75a12.78,12.78,0,0,1,12.8-12.46c7.43,0,12.81,5,12.81,12.46V60.64H156V58.58a9.78,9.78,0,0,1-7.09,2.63C141.67,61.21,136.64,56.18,136.64,48.75Zm19.2,0a6.21,6.21,0,0,0-6.4-6.52,6.28,6.28,0,0,0-6.4,6.52,6.35,6.35,0,0,0,6.4,6.52A6.27,6.27,0,0,0,155.84,48.75Z"/><path class="cls-1" d="M169.22,42.8H166V36.86h3.2V27.94A8.59,8.59,0,0,1,178.14,19h1V25h-.51a2.82,2.82,0,0,0-3,3v8.92h3.21V42.8h-3.21V60.64h-6.4Z"/><path class="cls-1" d="M181.28,48.75a12.79,12.79,0,0,1,12.81-12.46c7.43,0,12.35,4.68,12.8,12.46v2.17H187.57a6.56,6.56,0,0,0,6.52,4.8c2.06,0,3.2-.57,4.91-2.17l3.89,4a12.34,12.34,0,0,1-8.8,3.66C186.66,61.21,181.28,56.18,181.28,48.75ZM200.6,46a6.49,6.49,0,0,0-6.51-4.58,6.59,6.59,0,0,0-6.4,4.58Z"/><path class="cls-1" d="M219.54,41,201.71,19h8.11L223,35.6,236,19h8.12L226.29,41V60.64h-6.75Z"/><path class="cls-1" d="M240.36,30.23a4,4,0,0,1,4-3.89,3.86,3.86,0,0,1,3.89,3.89,4,4,0,0,1-3.89,4A4.05,4.05,0,0,1,240.36,30.23Zm.68,6.63h6.41V60.64H241Z"/><path class="cls-1" d="M251.9,48.75a12.79,12.79,0,0,1,12.81-12.46c7.43,0,12.35,4.68,12.8,12.46v2.17H258.19a6.56,6.56,0,0,0,6.52,4.8c2.06,0,3.2-.57,4.92-2.17l3.88,4a12.32,12.32,0,0,1-8.8,3.66C257.28,61.21,251.9,56.18,251.9,48.75ZM271.23,46a6.51,6.51,0,0,0-6.52-4.58,6.59,6.59,0,0,0-6.4,4.58Z"/><path class="cls-1" d="M281.8,19h6.4V60.64h-6.4Z"/><path class="cls-1" d="M292.43,48.75a12.57,12.57,0,0,1,12.46-12.46,11.21,11.21,0,0,1,6.75,2.05V19H318V48.75a12.78,12.78,0,0,1-12.8,12.46C297.81,61.21,292.43,56.18,292.43,48.75Zm19.21,0a6.22,6.22,0,0,0-6.4-6.52,6.29,6.29,0,0,0-6.41,6.52,6.35,6.35,0,0,0,6.41,6.52A6.28,6.28,0,0,0,311.64,48.75Z"/><path class="cls-1" d="M322.27,55.27h15.89a1.86,1.86,0,0,0,1.95-2,1.84,1.84,0,0,0-1.95-1.83H328.9a7.29,7.29,0,0,1-7.31-7.31,7.44,7.44,0,0,1,7.31-7.32h14.18v5.37H329.47a1.91,1.91,0,0,0-1.94,1.83A1.87,1.87,0,0,0,329.47,46h9.27a7.21,7.21,0,0,1,7.31,7.31,7.52,7.52,0,0,1-7.31,7.32H322.27Z"/><path class="cls-1" d="M78.48,39.64V25a9.31,9.31,0,0,0-5-8.27L43.54,1.05a9.31,9.31,0,0,0-8.59,0L5,16.68A9.3,9.3,0,0,0,0,25V49.24H0c0,17.12,32.94,31,39.23,31,4.53,0,22.9-7.2,32.81-17.64,4.78-5,1-13.37-5.92-13.37H13.93a6.58,6.58,0,0,1-6.58-6.58V29.32a9.17,9.17,0,0,1,4.94-8.15L35,9.31a9.12,9.12,0,0,1,8.47,0L66.23,21.18a9.14,9.14,0,0,1,4.91,8.1V39.64a3.67,3.67,0,0,0,3.67,3.68h0A3.67,3.67,0,0,0,78.48,39.64Z"/><path class="cls-2" d="M52.64,22.12V20.71a2.54,2.54,0,1,0-2.78,0V22H27.29A10.63,10.63,0,0,0,16.66,32.64V43.27H51.2a10.62,10.62,0,0,0,1.44-21.15ZM36.08,34.2a3.62,3.62,0,1,1-4.41-4.41A3.63,3.63,0,0,1,36.08,34.2Zm9.84,2.71a3.62,3.62,0,1,1,3.61-3.61A3.61,3.61,0,0,1,45.92,36.91Z"/></g></g></svg>