<svg width="25" height="22" viewBox="0 0 25 22" fill="none" xmlns="http://www.w3.org/2000/svg">
<path d="M8.039 21.6061C17.096 21.6061 22.0505 13.2915 22.0505 6.09374C22.0505 5.86107 22.0505 5.62508 22.0415 5.39241C23.0061 4.61877 23.8386 3.66095 24.5 2.56383C23.599 3.00399 22.6441 3.29409 21.6665 3.4247C22.6963 2.74271 23.4676 1.66967 23.837 0.404998C22.8695 1.04006 21.8105 1.48587 20.7065 1.7229C19.9643 0.847108 18.9821 0.266922 17.9121 0.0722114C16.8421 -0.122499 15.7441 0.0791316 14.788 0.645872C13.8319 1.21261 13.0712 2.11283 12.6237 3.20709C12.1761 4.30135 12.0668 5.52858 12.3125 6.69868C10.3546 6.58991 8.43922 6.02638 6.69056 5.04465C4.9419 4.06291 3.39903 2.68489 2.162 0.999965C1.53401 2.20167 1.34236 3.62314 1.62597 4.97572C1.90958 6.32829 2.64718 7.51058 3.689 8.28249C2.90831 8.2531 2.14478 8.02084 1.46 7.60443V7.67921C1.46135 8.93808 1.85496 10.1578 2.57431 11.1323C3.29366 12.1067 4.29462 12.7761 5.408 13.0273C4.98539 13.1563 4.54884 13.2206 4.1105 13.2184C3.80148 13.2194 3.49307 13.1877 3.1895 13.1237C3.50418 14.2073 4.11691 15.1548 4.94187 15.8334C5.76683 16.512 6.7627 16.8877 7.79 16.9078C6.04483 18.4265 3.8891 19.2502 1.67 19.2462C1.27898 19.248 0.888235 19.223 0.5 19.1714C2.75227 20.7623 5.36795 21.607 8.039 21.6061Z" fill="#F0EFED"/>
</svg>
