<?xml version="1.0" encoding="UTF-8"?><svg id="Layer_1" xmlns="http://www.w3.org/2000/svg" xmlns:xlink="http://www.w3.org/1999/xlink" viewBox="0 0 30 30"><defs><style>.cls-1{fill:url(#linear-gradient-2);}.cls-2{fill:url(#linear-gradient);}</style><linearGradient id="linear-gradient" x1=".41" y1="13.04" x2="28.7" y2="13.04" gradientUnits="userSpaceOnUse"><stop offset="0" stop-color="#c9d94e"/><stop offset="1" stop-color="#4abf2a"/></linearGradient><linearGradient id="linear-gradient-2" x1="10.4" y1="21.36" x2="29.59" y2="21.36" xlink:href="#linear-gradient"/></defs><path class="cls-2" d="m5.05,25.68s0,0,0,0h8.26c3.46,0,6.27-2.81,6.27-6.27,0-1.02-.24-1.99-.71-2.89-1.09-2.08-3.22-3.38-5.57-3.38-.88,0-1.59-.71-1.59-1.59s.71-1.59,1.59-1.59c.02,0,.03,0,.05,0t0,0h0s0,0,0,0t0,0s0,0,0,0c0,0,0,0,0,0,0,0,0,0,.01,0h15.3C26.65,4.38,21.29.41,15,.41,6.94.41.41,6.94.41,15c0,4.22,1.79,8.01,4.65,10.68Zm-1.55-13.75s0-.05,0-.08C3.5,6.64,7.74,2.4,12.94,2.4h7.03c.88,0,1.59.71,1.59,1.59s-.71,1.59-1.59,1.59h-7.03c-3.46,0-6.27,2.81-6.27,6.27,0,1.02.24,1.99.71,2.89,1.09,2.08,3.22,3.38,5.57,3.38.88,0,1.59.71,1.59,1.59s-.71,1.59-1.59,1.59c-3.53,0-6.75-1.95-8.38-5.09-.68-1.31-1.05-2.79-1.06-4.28Z"/><path class="cls-1" d="m20.39,13.13c.51.57.95,1.21,1.31,1.91.68,1.31,1.05,2.79,1.06,4.28,0,.03,0,.05,0,.08,0,5.11-4.08,9.28-9.14,9.44.06,0,.12,0,.19,0h-.49s0,0,0,0c0,0,0,0,0,0h-2.92c1.45.48,2.99.74,4.6.74,8.06,0,14.59-6.53,14.59-14.59,0-.63-.04-1.26-.12-1.87h-9.08Z"/></svg>